<?xml version="1.0" standalone="no"?><!DOCTYPE svg PUBLIC "-//W3C//DTD SVG 1.1//EN" "http://www.w3.org/Graphics/SVG/1.1/DTD/svg11.dtd"><svg class="icon" width="48px" height="48.00px" viewBox="0 0 1024 1024" version="1.1" xmlns="http://www.w3.org/2000/svg"><path fill="#1296db" d="M831.89 842.215c0 17.67-14.325 31.995-31.995 31.995H319.97V148.99h479.925c17.67 0 31.995 14.325 31.995 31.995v661.23z m-639.9 0V180.985c0-17.67 14.325-31.995 31.995-31.995h31.995v725.22H223.985c-17.67 0-31.995-14.325-31.995-31.995zM799.895 85H223.985C170.975 85 128 127.974 128 180.985v661.23C128 895.226 170.974 938.2 223.985 938.2h575.91c53.011 0 95.985-42.973 95.985-95.984V180.985C895.88 127.975 852.906 85 799.895 85zM659.957 318.336l-84.026 84.026-84.028-84.026-45.247 45.248 84.026 84.026H447.95v63.99h95.985v42.66H447.95v63.99h95.985v85.32h63.99v-85.32h95.984v-63.99h-95.984V511.6h95.984v-63.99h-82.73l84.024-84.026z" /></svg>